<?xml version="1.0" encoding="UTF-8"?>
<svg id="Layer_2" data-name="Layer 2" xmlns="http://www.w3.org/2000/svg" viewBox="0 0 111.27 33.56">
  <defs>
    <style>
      .cls-1 {
        fill: #f8b400;
      }
    </style>
  </defs>
  <g id="Layer_1-2" data-name="Layer 1">
    <g>
      <g>
        <path d="M5.04,23.48v10.08H0V7.4h5.04v1.44c7.62-5.26,14.83,3.17,11.88,11.04-1.8,4.81-7.71,7.08-11.88,3.6ZM6.08,19.32c4.18,4.2,9.17-3.6,4.7-6.74-4.1-2.89-7.8,3.63-4.7,6.74Z"/>
        <path d="M43.2,1.16l-6.96,14.78,4.32,8.98h-4.92c-1.07-1.14-1.39-2.96-2.22-4.25-.15-.23.03-.43-.53-.31l-6.48,13.2h-5.52l9.08-17.22-4.04-8.94h5.28c.36,1.34,1.02,2.73,1.66,3.98.13.25-.13.45.5.34l4.56-10.56h5.28Z"/>
        <g>
          <path d="M90.72,1.16v7.68c8.4-5.8,15.95,4.99,11.09,12.65-2.41,3.81-7.52,4.93-11.09,1.99v1.44h-5.04V1.16h5.04ZM93.53,12.02c-4.21.87-3.71,9.31,1.81,8.29,4.27-.79,3.72-9.43-1.81-8.29Z"/>
          <path d="M78.48,24.92v-1.44c-5.58,4.22-12.1-.09-12.49-6.59-.43-7.15,6.16-12.56,12.49-8.05v-1.44h5.04v17.52h-5.04ZM77.21,19.57c2.19-1.85,1.57-6.91-1.54-7.55-6.06-1.25-6.08,9.54,0,8.29.26-.05,1.33-.57,1.54-.74Z"/>
        </g>
        <path d="M57.6,17.24h-12c.49,3.64,5.38,4.07,6.63.7l4.63,1.86c-1.83,5.42-8.85,6.99-13.29,3.44-5.41-4.32-3.85-13.85,3-15.71,6.28-1.71,11.87,3.29,11.04,9.72ZM52.08,14.12c-1.13-2.67-5.1-2.63-6.24,0h6.24Z"/>
        <rect x="59.28" y="1.16" width="5.04" height="23.76"/>
        <circle class="cls-1" cx="107.9" cy="21.37" r="3.38"/>
      </g>
      <g>
        <rect x="19.2" y="7.4" width="5.04" height="17.52"/>
        <circle class="cls-1" cx="21.68" cy="2.91" r="2.91"/>
      </g>
    </g>
  </g>
</svg>